HIERARCHY
ROOT Hips
{
	OFFSET 0.000000 83.214638 0.000000
	CHANNELS 6 Xposition Yposition Zposition Xrotation Yrotation Zrotation
	JOINT Pelvis
	{
		OFFSET 0.000000 0.000000 0.000000
		CHANNELS 3 Xrotation Yrotation Zrotation
		JOINT LeftUpLeg
		{
			OFFSET 8.479700 -4.795502 -0.379100
			CHANNELS 3 Xrotation Yrotation Zrotation
			JOINT LeftLeg
			{
				OFFSET 0.024144 -32.555107 0.112900
				CHANNELS 3 Xrotation Yrotation Zrotation
				JOINT LeftFoot
				{
					OFFSET -0.024144 -32.638630 -3.012600
					CHANNELS 3 Xrotation Yrotation Zrotation
					JOINT LeftToeBase
					{
						OFFSET 0.970200 -13.225400 11.864200
						CHANNELS 3 Xrotation Yrotation Zrotation
						End Site
						{
							OFFSET 0.000000 12.319262 0.000000
						}
					}
					JOINT LFootTongue
					{
						OFFSET 1.142400 -1.059800 6.665200
						CHANNELS 3 Xrotation Yrotation Zrotation
						End Site
						{
							OFFSET 0.000000 12.319262 0.000000
						}
					}
				}
				JOINT LeftPantLeg
				{
					OFFSET 0.918482 -16.533964 -2.284700
					CHANNELS 3 Xrotation Yrotation Zrotation
					End Site
					{
						OFFSET 0.350399 24.744368 0.000000
					}
				}
			}
		}
		JOINT RightUpLeg
		{
			OFFSET -8.479700 -4.795502 -0.379100
			CHANNELS 3 Xrotation Yrotation Zrotation
			JOINT RightLeg
			{
				OFFSET -0.023144 -32.555092 0.112900
				CHANNELS 3 Xrotation Yrotation Zrotation
				JOINT RightFoot
				{
					OFFSET 0.023144 -32.638641 -3.012700
					CHANNELS 3 Xrotation Yrotation Zrotation
					JOINT RightToeBase
					{
						OFFSET -0.970200 -13.225400 11.864200
						CHANNELS 3 Xrotation Yrotation Zrotation
						End Site
						{
							OFFSET 0.000000 12.319244 0.000000
						}
					}
					JOINT RFootTongue
					{
						OFFSET -1.142200 -1.059800 6.665200
						CHANNELS 3 Xrotation Yrotation Zrotation
						End Site
						{
							OFFSET 0.000000 12.319243 0.000000
						}
					}
				}
				JOINT RightPantLeg
				{
					OFFSET -0.919482 -16.533978 -2.284800
					CHANNELS 3 Xrotation Yrotation Zrotation
					End Site
					{
						OFFSET -0.350400 24.744419 0.000000
					}
				}
			}
		}
	}
	JOINT Spine
	{
		OFFSET 0.000000 7.722000 1.166200
		CHANNELS 3 Xrotation Yrotation Zrotation
		JOINT Spine1
		{
			OFFSET 0.000000 12.024101 0.248800
			CHANNELS 3 Xrotation Yrotation Zrotation
			JOINT Spine2
			{
				OFFSET 0.000000 11.502998 -0.491200
				CHANNELS 3 Xrotation Yrotation Zrotation
				JOINT Neck
				{
					OFFSET 0.000000 18.430702 -3.123100
					CHANNELS 3 Xrotation Yrotation Zrotation
					JOINT Head
					{
						OFFSET 0.000000 9.051102 1.034000
						CHANNELS 3 Xrotation Yrotation Zrotation
						JOINT HairB
						{
							OFFSET 0.208400 24.786102 24.822300
							CHANNELS 3 Xrotation Yrotation Zrotation
							End Site
							{
								OFFSET 0.000000 32.263779 0.000000
							}
						}
						JOINT HairA
						{
							OFFSET -7.081100 24.428299 23.196600
							CHANNELS 3 Xrotation Yrotation Zrotation
							End Site
							{
								OFFSET 0.000000 32.263779 0.000000
							}
						}
						JOINT Hat
						{
							OFFSET 16.728800 15.048294 -15.439601
							CHANNELS 3 Xrotation Yrotation Zrotation
							End Site
							{
								OFFSET 0.000000 32.263779 0.000000
							}
						}
					}
				}
				JOINT LeftShoulder
				{
					OFFSET 6.197800 13.665199 -4.064700
					CHANNELS 3 Xrotation Yrotation Zrotation
					JOINT LeftArm
					{
						OFFSET 7.778100 -0.187103 -1.709300
						CHANNELS 3 Xrotation Yrotation Zrotation
						JOINT LeftForeArm
						{
							OFFSET 22.049376 0.000000 0.000000
							CHANNELS 3 Xrotation Yrotation Zrotation
							JOINT LeftHand
							{
								OFFSET 23.009392 0.000000 0.000000
								CHANNELS 3 Xrotation Yrotation Zrotation
								JOINT LeftHandThumb1
								{
									OFFSET 3.507191 -2.063065 3.133727
									CHANNELS 3 Xrotation Yrotation Zrotation
									JOINT LeftHandThumb2
									{
										OFFSET 3.101337 -1.790558 1.790558
										CHANNELS 3 Xrotation Yrotation Zrotation
										JOINT LeftHandThumb3
										{
											OFFSET 3.058640 -1.765907 1.765906
											CHANNELS 3 Xrotation Yrotation Zrotation
											End Site
											{
												OFFSET -0.415260 3.926476 -0.049563
											}
										}
									}
								}
								JOINT LeftHandIndex1
								{
									OFFSET 11.334419 -0.901459 3.706815
									CHANNELS 3 Xrotation Yrotation Zrotation
									JOINT LeftHandIndex2
									{
										OFFSET 3.283112 0.000000 0.000000
										CHANNELS 3 Xrotation Yrotation Zrotation
										JOINT LeftHandIndex3
										{
											OFFSET 3.323853 0.000000 0.000000
											CHANNELS 3 Xrotation Yrotation Zrotation
											End Site
											{
												OFFSET -1.135597 3.097809 0.402452
											}
										}
									}
								}
								JOINT LeftHandMiddle1
								{
									OFFSET 11.335861 0.000000 0.000000
									CHANNELS 3 Xrotation Yrotation Zrotation
									JOINT LeftHandMiddle2
									{
										OFFSET 3.410492 0.000000 0.000000
										CHANNELS 3 Xrotation Yrotation Zrotation
										JOINT LeftHandMiddle3
										{
											OFFSET 3.312172 0.000000 0.000000
											CHANNELS 3 Xrotation Yrotation Zrotation
											End Site
											{
												OFFSET -1.150200 3.080154 0.400270
											}
										}
									}
								}
								JOINT LeftHandRing1
								{
									OFFSET 11.514786 -0.013176 -3.003090
									CHANNELS 3 Xrotation Yrotation Zrotation
									JOINT LeftHandRing2
									{
										OFFSET 3.053307 0.000000 0.000000
										CHANNELS 3 Xrotation Yrotation Zrotation
										JOINT LeftHandRing3
										{
											OFFSET 3.295807 0.000000 0.000000
											CHANNELS 3 Xrotation Yrotation Zrotation
											End Site
											{
												OFFSET -1.281006 3.013344 0.375733
											}
										}
									}
								}
								JOINT LeftHandPinky1
								{
									OFFSET 10.518692 -0.960396 -5.730441
									CHANNELS 3 Xrotation Yrotation Zrotation
									JOINT LeftHandPinky2
									{
										OFFSET 2.861649 0.000000 0.000000
										CHANNELS 3 Xrotation Yrotation Zrotation
										JOINT LeftHandPinky3
										{
											OFFSET 2.863380 0.000000 0.000000
											CHANNELS 3 Xrotation Yrotation Zrotation
											End Site
											{
												OFFSET -0.843597 2.711159 0.369971
											}
										}
									}
								}
							}
							JOINT LSleeve
							{
								OFFSET 6.676277 -0.344902 -1.011730
								CHANNELS 3 Xrotation Yrotation Zrotation
								End Site
								{
									OFFSET 0.000000 14.885353 0.000000
								}
							}
						}
					}
				}
				JOINT RightShoulder
				{
					OFFSET -6.197800 13.665199 -4.064700
					CHANNELS 3 Xrotation Yrotation Zrotation
					JOINT RightArm
					{
						OFFSET -7.778100 -0.187103 -1.709300
						CHANNELS 3 Xrotation Yrotation Zrotation
						JOINT RightForeArm
						{
							OFFSET -22.049376 0.000000 0.000000
							CHANNELS 3 Xrotation Yrotation Zrotation
							JOINT RightHand
							{
								OFFSET -23.009392 0.000000 0.000000
								CHANNELS 3 Xrotation Yrotation Zrotation
								JOINT RightHandThumb1
								{
									OFFSET -3.507191 -2.063065 3.133727
									CHANNELS 3 Xrotation Yrotation Zrotation
									JOINT RightHandThumb2
									{
										OFFSET -3.101337 -1.790558 1.790558
										CHANNELS 3 Xrotation Yrotation Zrotation
										JOINT RightHandThumb3
										{
											OFFSET -3.058640 -1.765907 1.765906
											CHANNELS 3 Xrotation Yrotation Zrotation
											End Site
											{
												OFFSET 0.415260 3.926476 -0.049563
											}
										}
									}
								}
								JOINT RightHandIndex1
								{
									OFFSET -11.334419 -0.901459 3.706815
									CHANNELS 3 Xrotation Yrotation Zrotation
									JOINT RightHandIndex2
									{
										OFFSET -3.283112 0.000000 0.000000
										CHANNELS 3 Xrotation Yrotation Zrotation
										JOINT RightHandIndex3
										{
											OFFSET -3.323853 0.000000 0.000000
											CHANNELS 3 Xrotation Yrotation Zrotation
											End Site
											{
												OFFSET 1.135597 3.097809 0.402452
											}
										}
									}
								}
								JOINT RightHandMiddle1
								{
									OFFSET -11.335861 0.000000 0.000000
									CHANNELS 3 Xrotation Yrotation Zrotation
									JOINT RightHandMiddle2
									{
										OFFSET -3.410492 0.000000 0.000000
										CHANNELS 3 Xrotation Yrotation Zrotation
										JOINT RightHandMiddle3
										{
											OFFSET -3.312172 0.000000 0.000000
											CHANNELS 3 Xrotation Yrotation Zrotation
											End Site
											{
												OFFSET 1.150200 3.080154 0.400270
											}
										}
									}
								}
								JOINT RightHandRing1
								{
									OFFSET -11.514786 -0.013176 -3.003090
									CHANNELS 3 Xrotation Yrotation Zrotation
									JOINT RightHandRing2
									{
										OFFSET -3.053307 0.000000 0.000000
										CHANNELS 3 Xrotation Yrotation Zrotation
										JOINT RightHandRing3
										{
											OFFSET -3.295807 0.000000 0.000000
											CHANNELS 3 Xrotation Yrotation Zrotation
											End Site
											{
												OFFSET 1.281006 3.013344 0.375733
											}
										}
									}
								}
								JOINT RightHandPinky1
								{
									OFFSET -10.518692 -0.960396 -5.730441
									CHANNELS 3 Xrotation Yrotation Zrotation
									JOINT RightHandPinky2
									{
										OFFSET -2.861649 0.000000 0.000000
										CHANNELS 3 Xrotation Yrotation Zrotation
										JOINT RightHandPinky3
										{
											OFFSET -2.863380 0.000000 0.000000
											CHANNELS 3 Xrotation Yrotation Zrotation
											End Site
											{
												OFFSET 0.843597 2.711159 0.369971
											}
										}
									}
								}
							}
							JOINT RSleeve
							{
								OFFSET -6.676277 -0.344902 -1.011730
								CHANNELS 3 Xrotation Yrotation Zrotation
								End Site
								{
									OFFSET 0.000000 14.885353 0.000000
								}
							}
						}
					}
				}
				JOINT Backpack
				{
					OFFSET 0.000000 -2.471497 36.677502
					CHANNELS 3 Xrotation Yrotation Zrotation
					End Site
					{
						OFFSET 0.000000 20.427315 0.000000
					}
				}
				JOINT Hood
				{
					OFFSET 0.000000 18.754097 -10.431000
					CHANNELS 3 Xrotation Yrotation Zrotation
					JOINT Hood1
					{
						OFFSET 0.000000 -5.011002 -7.685901
						CHANNELS 3 Xrotation Yrotation Zrotation
						End Site
						{
							OFFSET 0.000000 9.175140 0.000000
						}
					}
				}
				JOINT LHoodieString
				{
					OFFSET 5.250500 16.397697 3.089900
					CHANNELS 3 Xrotation Yrotation Zrotation
					JOINT LHoodieString1
					{
						OFFSET 0.257700 -6.364304 3.694600
						CHANNELS 3 Xrotation Yrotation Zrotation
						JOINT LHoodieString2
						{
							OFFSET 0.000000 -9.643799 2.679100
							CHANNELS 3 Xrotation Yrotation Zrotation
							End Site
							{
								OFFSET 0.000000 10.009018 0.000000
							}
						}
					}
				}
				JOINT RHoodieString
				{
					OFFSET -5.250500 16.397697 3.089900
					CHANNELS 3 Xrotation Yrotation Zrotation
					JOINT RHoodieString1
					{
						OFFSET -0.257700 -6.364304 3.694600
						CHANNELS 3 Xrotation Yrotation Zrotation
						JOINT RHoodieString2
						{
							OFFSET 0.000000 -9.643799 2.679100
							CHANNELS 3 Xrotation Yrotation Zrotation
							End Site
							{
								OFFSET 0.000000 10.009018 0.000000
							}
						}
					}
				}
			}
			JOINT LBackpack_Strap
			{
				OFFSET 15.223200 -7.719803 -6.610900
				CHANNELS 3 Xrotation Yrotation Zrotation
				End Site
				{
					OFFSET 0.000000 16.040596 0.000000
				}
			}
			JOINT RBackpack_Strap
			{
				OFFSET -15.223000 -7.719803 -6.610900
				CHANNELS 3 Xrotation Yrotation Zrotation
				End Site
				{
					OFFSET 0.000000 16.040596 0.000000
				}
			}
		}
	}
	JOINT BoyFacialAnim_Joint
	{
		OFFSET 1.000000 -82.208099 -1.550900
		CHANNELS 3 Xrotation Yrotation Zrotation
		End Site
		{
			OFFSET 0.000000 30.012791 0.000000
		}
	}
}
MOTION
Frames: 4
Frame Time: 0.016667
-4.411770 74.434097 5.489819 -7.679004 22.873250 7.788997 0.000001 0.000002 0.000000 -20.079935 -12.969307 5.712716 43.725345 -0.593047 0.246123 -19.209584 -5.299827 -15.802153 0.000000 0.000000 -0.000000 0.000000 0.000000 -0.000000 0.000001 0.000001 -0.000001 -16.784836 -28.446985 -25.252879 52.089939 0.082936 -0.323243 -32.852366 -4.403742 8.821678 0.000000 -0.000002 -0.000000 0.000000 -0.000002 -0.000000 0.000000 -0.000000 0.000001 19.084064 1.210698 1.266150 5.234401 1.638211 -0.510233 5.225524 1.690290 -0.516647 -17.295333 -9.726833 -7.669279 -20.599087 -12.220341 0.353304 -0.000001 -0.000001 -0.000000 -0.000001 -0.000001 -0.000000 -0.000001 -0.000001 -0.000000 -0.697443 -12.691481 -24.679610 -13.018056 -5.162530 -28.488915 51.978737 -46.839665 7.482878 4.023842 -22.781649 14.370752 11.432768 11.898666 2.278016 0.907281 24.171841 -3.294980 0.000001 -0.000000 -0.000001 -4.825736 9.288220 -23.825216 3.434083 9.250173 -40.028395 0.000001 -0.000001 -0.000000 -11.628091 16.087788 -27.374741 11.222080 9.790876 -61.810350 -0.000005 0.000001 -0.000003 -8.924414 18.188780 -48.130758 11.602453 5.110940 -60.456395 0.000000 0.000003 0.000000 -5.365015 8.158727 -54.955740 9.871771 -13.977176 -74.788440 -0.000005 -0.000001 -0.000000 0.000003 0.000002 0.000001 6.242222 -2.614790 -11.084390 -35.911369 -11.573017 -6.604740 -129.166090 14.300494 149.579340 18.373678 2.814405 -8.754307 -10.063572 -12.114437 -5.432843 -8.224831 -5.483065 5.365292 0.000002 0.000001 0.000001 4.411664 -5.661988 62.206276 9.270950 -12.376264 79.811744 0.000000 -0.000000 0.000000 -5.517183 -19.375247 62.311447 15.444359 -10.143914 85.739952 -0.000003 0.000000 -0.000005 -7.692901 -21.406023 73.131225 13.187944 -6.413954 74.081891 -0.000002 -0.000001 0.000002 -6.411605 -22.996120 83.381645 9.054124 13.497752 82.144759 -0.000002 0.000001 -0.000003 -0.000003 0.000002 0.000000 0.000000 0.000002 -0.000000 0.000000 0.000002 -0.000000 0.000000 0.000002 -0.000000 0.000000 0.000002 -0.000000 0.000000 0.000002 -0.000000 0.000001 0.000002 -0.000001 0.000000 0.000002 -0.000000 0.000000 0.000002 -0.000000 0.000001 0.000002 -0.000001 -0.000001 -0.000000 -0.000000 -0.000001 -0.000000 -0.000000 0.000001 0.000002 0.000000 
-4.610592 74.534904 5.940647 -7.911013 24.572671 7.728085 0.000001 0.000001 -0.000000 -19.737920 -14.751160 5.664349 43.130199 -0.605167 0.240164 -19.089426 -5.260667 -16.127759 -0.000000 -0.000000 -0.000000 -0.000000 -0.000000 -0.000000 -0.000000 -0.000001 -0.000002 -15.603058 -30.312970 -24.759895 51.072183 0.089321 -0.307760 -33.009710 -4.793052 8.734878 0.000000 0.000002 -0.000000 0.000000 0.000002 -0.000000 -0.000003 -0.000000 -0.000001 18.998656 1.107103 1.331177 5.096424 1.511987 -0.476951 5.088409 1.550697 -0.475987 -18.172864 -7.374430 -11.412607 -20.891296 -12.073567 1.777838 -0.000001 0.000001 0.000000 -0.000001 0.000001 0.000000 -0.000001 0.000001 0.000000 -0.787869 -12.075485 -26.714946 -11.942301 -3.432189 -26.261545 55.390870 -49.285166 10.889092 5.145030 -22.468998 14.527689 11.432765 11.898682 2.278047 1.501921 25.466698 -3.312471 0.000000 -0.000003 -0.000000 -3.794581 7.957287 -23.971112 4.254777 10.064930 -46.827695 -0.000002 -0.000002 -0.000004 -11.756395 14.887292 -29.374195 11.904645 9.966831 -65.739601 0.000001 0.000001 0.000004 -9.476040 18.032246 -49.017778 11.714556 5.347369 -61.842869 -0.000001 0.000003 0.000000 -6.800925 9.633144 -56.189002 9.701536 -13.949369 -75.709403 0.000001 -0.000003 0.000003 0.000003 0.000002 -0.000001 7.717156 -7.373789 -5.050553 -43.972153 -21.360505 -11.904045 -118.831303 10.484322 148.086479 21.961613 11.633970 -14.248320 -10.063570 -12.114467 -5.432861 -8.226135 -5.485144 5.369669 0.000000 -0.000001 -0.000000 2.105032 -3.843929 56.888632 9.938198 -12.409281 83.561197 -0.000000 -0.000000 0.000004 -5.678368 -19.240252 61.807304 15.499940 -10.129646 85.942624 0.000003 0.000005 -0.000001 -7.133038 -21.873437 74.675578 13.186706 -6.412986 74.079993 -0.000000 0.000001 0.000002 -5.396348 -23.712716 86.009096 9.042690 13.516126 81.894747 -0.000002 0.000001 -0.000005 0.000002 0.000001 0.000001 0.000002 -0.000001 -0.000000 0.000002 -0.000001 -0.000000 0.000002 -0.000001 -0.000000 0.000002 -0.000001 -0.000000 0.000002 -0.000001 -0.000000 0.000000 -0.000001 -0.000000 0.000002 -0.000001 -0.000000 0.000002 -0.000001 -0.000000 0.000000 -0.000001 -0.000000 -0.000000 0.000002 0.000000 -0.000000 0.000002 0.000000 0.000001 0.000001 -0.000000 
-4.749532 74.661575 6.411424 -8.058694 26.682928 8.023654 0.000001 -0.000000 0.000000 -19.584350 -16.785106 5.063597 42.262595 -0.615610 0.231422 -18.784832 -5.175220 -16.382157 0.000000 -0.000000 -0.000000 0.000000 -0.000000 -0.000000 0.000001 -0.000001 -0.000001 -14.693077 -32.352400 -24.743902 49.994287 0.109302 -0.292488 -33.150084 -5.307778 8.740976 0.000000 -0.000000 0.000000 0.000000 -0.000000 0.000000 0.000000 -0.000000 -0.000000 19.004119 0.708144 1.462581 5.119969 0.756772 -0.529777 5.119970 0.792231 -0.531182 -18.019885 -6.128815 -11.431359 -23.168543 -10.769688 0.960110 -0.000001 -0.000001 -0.000000 -0.000001 -0.000001 -0.000000 -0.000001 -0.000001 -0.000000 -0.786546 -12.473180 -26.068153 -9.832095 0.874618 -25.954340 55.683746 -52.355753 13.970407 5.154081 -22.384074 15.753927 11.432774 11.898671 2.278018 2.008817 26.268609 -3.133975 0.000002 0.000002 -0.000003 -2.251135 6.806038 -25.190453 5.503163 11.025392 -56.130310 -0.000002 -0.000001 -0.000002 -11.459841 14.203318 -33.122640 12.927614 10.135836 -71.691906 0.000001 0.000001 -0.000001 -10.290438 17.678210 -51.680995 12.170161 5.710945 -65.667590 0.000002 0.000004 0.000002 -9.073669 11.365278 -57.531537 9.482006 -13.836134 -77.686715 -0.000005 0.000001 -0.000002 0.000002 0.000000 0.000003 8.148604 -9.861668 -1.653014 -54.292422 -30.007808 -14.466132 -110.199904 8.391190 146.424803 18.072114 15.336309 -13.285893 -10.063561 -12.114471 -5.432849 -8.227446 -5.487233 5.374030 0.000002 0.000002 0.000000 1.196553 -3.158883 56.657283 10.312583 -12.414100 85.657703 -0.000001 -0.000001 0.000002 -5.742798 -19.186643 61.603996 15.602913 -10.102570 86.317424 0.000003 -0.000003 -0.000000 -6.814829 -22.127547 75.537712 13.249230 -6.405615 74.350584 -0.000000 -0.000004 0.000003 -4.320086 -24.385625 88.689863 9.030342 13.536104 81.623021 0.000001 -0.000002 0.000002 0.000000 0.000000 -0.000003 0.000001 -0.000001 -0.000000 0.000001 -0.000001 -0.000000 0.000001 -0.000001 -0.000000 0.000001 -0.000001 -0.000000 0.000001 -0.000001 -0.000000 -0.000000 -0.000000 0.000000 0.000001 -0.000001 -0.000000 0.000001 -0.000001 -0.000000 -0.000000 -0.000000 0.000000 0.000000 -0.000002 0.000001 0.000000 -0.000002 0.000001 0.000001 -0.000000 0.000000 
-4.875854 74.803391 6.799185 -8.009310 28.559357 8.263153 -0.000001 0.000000 -0.000000 -19.594793 -18.597172 4.484498 41.303534 -0.647228 0.221566 -18.380311 -5.025632 -16.591969 -0.000000 0.000000 -0.000000 -0.000000 0.000000 -0.000000 0.000002 0.000000 0.000000 -14.092692 -34.116344 -24.715133 48.965524 0.117683 -0.278862 -33.182558 -5.774624 8.728346 0.000000 -0.000000 0.000000 0.000000 -0.000000 0.000000 0.000002 -0.000000 -0.000001 19.015194 0.172133 1.609340 5.137558 -0.395265 -0.742506 5.145107 -0.355845 -0.748203 -17.870382 -5.140443 -11.214737 -24.990202 -9.168330 -0.055154 -0.000001 0.000000 -0.000000 -0.000001 0.000000 -0.000000 -0.000001 0.000000 -0.000000 -0.729885 -12.936527 -24.594043 -7.448412 5.738898 -26.622708 53.665879 -55.184104 15.413789 5.030939 -22.352311 16.946801 11.432750 11.898669 2.278036 2.417375 26.741184 -2.824123 0.000001 -0.000001 0.000001 -0.680618 5.686694 -26.936065 6.892016 11.728973 -65.387839 -0.000004 0.000003 -0.000001 -11.129773 13.721702 -37.247518 13.953069 10.245291 -77.699330 -0.000000 -0.000004 -0.000001 -11.165294 17.079426 -55.081128 12.723720 6.058995 -69.966860 0.000000 0.000003 0.000000 -11.557501 12.642534 -58.779631 9.272218 -13.696363 -79.792695 -0.000004 -0.000001 0.000001 0.000000 -0.000001 0.000000 8.112579 -11.609561 1.893598 -67.056154 -34.147592 -17.067553 -102.494242 5.567647 145.072385 10.148211 17.432289 -8.852105 -10.063566 -12.114474 -5.432859 -8.228746 -5.489377 5.378390 -0.000000 0.000002 -0.000001 0.713237 -2.871487 56.761327 10.462550 -12.409634 86.501224 0.000002 -0.000002 0.000001 -5.871335 -19.074743 61.194076 15.711433 -10.073261 86.712550 -0.000000 0.000001 0.000000 -6.700026 -22.214835 75.840795 13.352711 -6.393769 74.797839 0.000001 -0.000001 0.000002 -3.692226 -24.744688 90.215707 9.019920 13.553459 81.391253 -0.000001 -0.000002 -0.000004 0.000003 0.000002 0.000001 -0.000000 0.000003 -0.000001 -0.000000 0.000003 -0.000001 -0.000000 0.000003 -0.000001 -0.000000 0.000003 -0.000001 -0.000000 0.000003 -0.000001 -0.000002 -0.000000 0.000000 -0.000000 0.000003 -0.000001 -0.000000 0.000003 -0.000001 -0.000002 -0.000000 0.000000 -0.000000 0.000000 -0.000000 -0.000000 0.000000 -0.000000 -0.000001 0.000000 -0.000000 
